<?xml version="1.0" encoding="UTF-8" standalone="no"?>
<!-- Created with Inkscape (http://www.inkscape.org/) -->

<svg
   viewBox="0 0 132.27167 132.27168"
   version="1.1"
   id="svg1"
   xml:space="preserve"
   xmlns="http://www.w3.org/2000/svg"
   xmlns:svg="http://www.w3.org/2000/svg"><defs
     id="defs1" /><g
     id="layer1"
     transform="translate(-38.864161,-82.36416)"><rect
       style="fill:none;stroke:none;stroke-width:2;stroke-linecap:round;stroke-linejoin:round;paint-order:stroke fill markers"
       id="rect1"
       width="132.27167"
       height="132.27168"
       x="38.864166"
       y="82.364159"
       ry="4.6904764" /><path
       style="fill:#b66940;fill-opacity:1;stroke:none;stroke-width:1;stroke-linecap:round;stroke-linejoin:round"
       d="m 143.36412,165.2885 c 0.8482,0.56234 1.57133,1.42592 1.64518,2.48043 0.0757,1.08138 -0.59903,1.97973 -1.1438,2.83718 -0.15067,0.23714 -0.52263,0.96521 0.0729,0.72245 0.68609,-0.1512 1.23475,-0.62245 1.83185,-0.96613 1.24344,-0.72855 2.20191,-1.99278 2.67014,-3.35688 1.50678,-4.38973 -8.38795,-9.97828 -9.99478,-8.07373 -2.69423,4.73341 2.54067,5.01511 4.91851,6.35668 z"
       id="path13" /><path
       style="fill:#b66940;stroke:none;stroke-width:1;stroke-linecap:round;stroke-linejoin:round"
       d="m 62.926463,163.70211 c -1.443019,1.04546 -2.056619,2.22963 -1.974585,3.93844 0.04606,1.04639 0.509262,1.99878 0.897387,2.95469 0.10451,0.2574 0.148048,0.66162 0.204561,0.89073 -0.391398,-0.0902 -1.013496,-0.3711 -1.345942,-0.79421 -0.8294,-1.05559 -1.491798,-2.2716 -1.690758,-3.61902 -0.982212,-6.65186 6.035267,-9.65222 6.978402,-8.14092 0.666775,2.0755 -1.688779,3.65109 -3.069065,4.77029 z"
       id="path2" /><path
       style="display:inline;opacity:1;fill:#ffa665;fill-opacity:1;stroke:none;stroke-width:1.5;stroke-linecap:round;stroke-linejoin:round"
       d="m 147.31871,164.51653 c -1.28202,-1.53487 -3.1887,-2.674 -4.54518,-3.18791 -1.09367,0.87416 -1.77748,1.82148 -3.39626,3.02514 -5.87264,4.36663 -13.04379,6.21161 -20.11546,8.04035 -10.66678,2.75844 -21.91556,3.73 -32.621015,1.42684 -8.126091,-1.74824 -16.931209,-4.44456 -22.062143,-11.52499 -3.293344,-0.45347 -5.669852,1.42786 -6.40203,4.08334 -0.830934,3.00145 0.61187,5.4917 1.366779,8.11841 -0.994587,-0.34216 -4.241238,-4.83257 -4.837074,-6.06841 -2.032932,-4.21657 1.676491,-8.92655 5.81717,-9.35244 0.759779,-0.0782 1.31932,-0.64455 1.312859,-0.83291 -0.542548,-0.47533 -5.887149,-0.99495 -6.801012,-1.6051 -4.312244,-1.43595 -9.486904,-2.0044 -12.158629,-6.24707 -2.126279,-3.37651 -3.796308,-8.42329 -0.786898,-11.73173 1.395311,0.38824 4.867784,4.02439 5.662986,4.30268 0.03984,-2.364 -1.132681,-4.95623 -0.160763,-7.25884 1.983279,-0.23674 9.697207,5.42316 8.79251,13.61959 -0.209728,1.90011 -0.272137,3.53043 -0.4932,4.62783 1.424432,1.1957 3.216239,1.9884 5.287724,2.12382 -0.194109,-3.19913 6.41527,-3.2988 2.261501,-7.20822 -2.711636,-2.55212 1.803208,-2.35665 3.689795,-3.4459 0.897739,-0.51832 0.953367,-1.52451 -0.05745,-3.26387 -0.677271,-1.16541 -0.37143,-2.13353 0.01711,-2.69891 1.069811,-1.55672 4.555126,-0.88041 6.433799,-0.45834 1.058574,-2.5353 0.09223,-8.73079 4.796892,-5.54411 2.817847,1.84938 2.874039,-0.59411 3.328102,-2.92739 0.914524,-4.69944 3.364028,-2.90117 4.065562,-2.13679 4.467747,4.86794 3.977795,-6.0805 7.988032,-2.72431 3.777489,3.1614 4.818983,-2.35459 6.902693,-3.90641 0.88262,-0.65733 2.53083,-0.98233 3.49601,1.12256 1.13164,2.4679 2.50299,2.78465 3.96584,2.39532 1.52524,-0.40593 3.17515,-2.29448 4.70612,-1.88253 1.76093,0.47382 2.40214,3.66587 3.7772,4.82221 0.99041,0.83287 2.02039,0.73102 3.96305,-0.74016 3.61209,-2.73544 3.80585,3.07202 5.87318,4.03454 1.55625,0.72457 2.88295,-1.95366 4.2574,-0.43234 1.26774,1.4032 0.40035,5.61225 2.37693,5.6347 0.95605,0.0109 3.62329,-2.02465 4.979,-0.44338 1.12695,1.31444 0.037,4.02485 0.47873,5.23898 0.54666,1.50253 3.38147,-0.1828 5.28184,1.3663 1.78754,1.45712 -1.27659,3.49943 -0.45916,5.00854 0.56903,1.05054 2.43385,1.39573 3.57654,2.1222 1.09442,0.69578 1.52837,1.76258 -0.55887,3.18856 -1.7929,1.22489 -1.88308,1.68883 -2.1127,2.23094 0.53478,-0.0881 1.15499,-0.55697 2.2669,-1.10967 1.75775,-0.87373 3.18123,-2.38052 3.99922,-3.02009 0.16235,-2.24784 -0.6494,-6.87485 1.79987,-9.7455 2.70582,-3.49245 7.33146,-5.64658 11.60387,-6.27828 -0.32894,1.59812 -2.97056,5.79581 -3.13404,7.30088 4.01112,-0.47486 7.05968,-3.09724 8.62748,-3.06587 0.77137,1.13463 0.0672,10.34964 -13.6067,14.22729 -0.93768,0.26591 -2.28802,0.24272 -3.51655,0.36963 -2.30502,0.80747 -5.69261,1.59534 -7.20597,2.67568 0.11403,0.27284 0.22807,0.54568 0.3421,0.81852 3.7559,1.34834 10.51149,5.47415 7.90596,10.02557 -1.59782,2.79111 -5.91825,7.10986 -8.16601,7.55614 1.11422,-2.21735 3.18548,-4.68336 3.37793,-7.25861 0.0728,-0.97502 0.0842,-1.89108 -1.18157,-3.40648 z"
       id="path14" /><path
       style="fill:none;stroke:#180f0a;stroke-width:1;stroke-linecap:round;stroke-linejoin:round"
       d="m 100.98157,169.77814 c 2.88196,-0.14059 5.79213,-0.23608 8.66249,-0.55994"
       id="path15" /><circle
       id="path3"
       style="display:inline;opacity:1;fill:#000000;stroke:none;stroke-width:0.264583"
       cx="96.104301"
       cy="162.92903"
       r="1" /><circle
       id="path4"
       style="display:inline;opacity:1;fill:#000000;stroke:none;stroke-width:0.264583"
       cx="113.02583"
       cy="162.5031"
       r="1" /></g></svg>
